<svg width="24" height="24" viewBox="0 0 24 24" fill="none" xmlns="http://www.w3.org/2000/svg">
<path d="M12 0C9.62663 0 7.30655 0.703788 5.33316 2.02236C3.35977 3.34094 1.8217 5.21508 0.913451 7.4078C0.00519941 9.60051 -0.232441 12.0133 0.230582 14.3411C0.693605 16.6689 1.83649 18.807 3.51472 20.4853C5.19295 22.1635 7.33115 23.3064 9.65892 23.7694C11.9867 24.2324 14.3995 23.9948 16.5922 23.0865C18.7849 22.1783 20.6591 20.6402 21.9776 18.6668C23.2962 16.6934 24 14.3734 24 12C24 10.4241 23.6896 8.8637 23.0866 7.4078C22.4835 5.95189 21.5996 4.62902 20.4853 3.51472C19.371 2.40042 18.0481 1.5165 16.5922 0.913445C15.1363 0.310389 13.5759 0 12 0V0ZM9.6 15.6C9.6 15.9183 9.47358 16.2235 9.24853 16.4485C9.02349 16.6736 8.71826 16.8 8.4 16.8C8.08174 16.8 7.77652 16.6736 7.55148 16.4485C7.32643 16.2235 7.2 15.9183 7.2 15.6V8.4C7.2 8.08174 7.32643 7.77651 7.55148 7.55147C7.77652 7.32643 8.08174 7.2 8.4 7.2C8.71826 7.2 9.02349 7.32643 9.24853 7.55147C9.47358 7.77651 9.6 8.08174 9.6 8.4V15.6ZM16.8 15.6C16.8 15.9183 16.6736 16.2235 16.4485 16.4485C16.2235 16.6736 15.9183 16.8 15.6 16.8C15.2817 16.8 14.9765 16.6736 14.7515 16.4485C14.5264 16.2235 14.4 15.9183 14.4 15.6V8.4C14.4 8.08174 14.5264 7.77651 14.7515 7.55147C14.9765 7.32643 15.2817 7.2 15.6 7.2C15.9183 7.2 16.2235 7.32643 16.4485 7.55147C16.6736 7.77651 16.8 8.08174 16.8 8.4V15.6Z" fill="white"/>
</svg>
